<svg t="1620886678280" class="icon" viewBox="0 0 1024 1024" version="1.1" xmlns="http://www.w3.org/2000/svg" p-id="2010" width="100%" height="100%">
<path d="M512 738.159775l54.247276 139.338173-54.247276 122.344306h-143.728805l-100.827943-114.331558c33.060571-100.972169 101.136998-147.350922 101.136997-147.350921z" fill="#B08BD7" p-id="2011"></path>
<path d="M756.556748 885.510696l-100.827943 114.331558H512V738.159775h143.419751s68.076427 46.378753 101.136997 147.350921z" fill="#A47CD1" p-id="2012"></path>
<path d="M699.946237 90.995895s120.102632-96.633046 232.84153 13.178077 149.660588 335.286857-58.609063 335.286857zM324.053763 90.995895S203.951131-5.637151 91.212233 104.173972s-149.660588 335.286857 58.609063 335.286857z" fill="#6A647F" p-id="2013">
</path><path d="M497.295195 743.632097c5.789618 0 11.515364 0.309054 17.17724 0.879774l-2.472435-6.350036h-143.419751s-68.076427 46.378753-101.136997 147.350922l35.877086 40.681851c19.901038-104.485087 99.183775-182.562511 193.974857-182.562511z" fill="#A47CD1" p-id="2014"></path><path d="M231.71524 700.591912a396.240612 396.240612 0 1 0 560.368847-560.368847 396.240612 396.240612 0 1 0-560.368847 560.368847Z" fill="#E7886E" p-id="2015"></path><path d="M512 701.407034c-151.807485 0-275.311775-65.575147-275.311775-217.382632S360.192515 324.568853 512 324.568853s275.311775 7.650125 275.311775 159.455549S663.807485 701.407034 512 701.407034z" fill="#FFD3BC" p-id="2016"></path><path d="M339.644523 521.10474a15.452716 15.452716 0 0 1-15.452716-15.452716v-33.118261c0-8.53608 6.918696-15.452716 15.452716-15.452717s15.452716 6.916636 15.452716 15.452717v33.118261a15.452716 15.452716 0 0 1-15.452716 15.452716zM684.355477 521.10474a15.452716 15.452716 0 0 1-15.452716-15.452716v-33.118261c0-8.53608 6.918696-15.452716 15.452716-15.452717s15.452716 6.916636 15.452716 15.452717v33.118261a15.452716 15.452716 0 0 1-15.452716 15.452716zM512 540.820346a75.71831 75.71831 0 0 1-57.088515-26.001771 15.452716 15.452716 0 0 1 23.300636-20.304869 44.823179 44.823179 0 0 0 33.789939 15.403268 44.823179 44.823179 0 0 0 33.792-15.403268 15.452716 15.452716 0 0 1 21.802753-1.497883 15.452716 15.452716 0 0 1 1.495823 21.802752 75.732732 75.732732 0 0 1-57.092636 26.001771z" fill="#423E4F" p-id="2017"></path><path d="M205.632386 446.282688c0-194.014004 107.369594-358.898608 256.900379-419.0447-195.227557 24.421473-346.773376 191.420008-346.773377 393.15831 0 151.931107 85.968612 284.142487 211.801111 350.60565-74.995123-80.957811-121.928113-196.467895-121.928113-324.71926z" fill="#E27858" p-id="2018"></path><path d="M313.079514 294.747052a73.334471 58.400966 0.11 1 0 0.224244-116.801717 73.334471 58.400966 0.11 1 0-0.224244 116.801717Z" fill="#FFFFFF" p-id="2019"></path><path d="M710.502845 295.61851a73.334471 58.400966 0.11 1 0 0.224244-116.801717 73.334471 58.400966 0.11 1 0-0.224244 116.801717Z" fill="#FFFFFF" p-id="2020"></path><path d="M356.69608 147.639372a15.452716 15.452716 0 0 0-15.452716 15.452717v29.803138c0 8.53608 6.918696 15.452716 15.452716 15.452717s15.452716-6.916636 15.452717-15.452717V163.092089a15.452716 15.452716 0 0 0-15.452717-15.452717zM666.877425 147.639372a15.452716 15.452716 0 0 0-15.452717 15.452717v29.803138c0 8.53608 6.918696 15.452716 15.452717 15.452717s15.452716-6.916636 15.452716-15.452717V163.092089a15.452716 15.452716 0 0 0-15.452716-15.452717zM584.038503 195.211074a15.452716 15.452716 0 0 0-15.452716 15.452717c0 11.276362-9.172732 20.449095-20.447034 20.449094s-20.447034-9.172732-20.447035-20.449094c0-8.53608-6.918696-15.452716-15.452716-15.452717s-15.452716 6.916636-15.452716 15.452717c0 11.276362-9.172732 20.449095-20.447034 20.449094s-20.447034-9.172732-20.447035-20.449094c0-8.53608-6.918696-15.452716-15.452716-15.452717s-15.452716 6.916636-15.452716 15.452717c0 28.315557 23.036909 51.354527 51.352467 51.354527 13.963074 0 26.634302-5.608306 35.89975-14.682141 9.265449 9.073835 21.938736 14.682141 35.899751 14.682141 28.315557 0 51.352467-23.03897 51.352466-51.354527a15.452716 15.452716 0 0 0-15.452716-15.452717z" fill="#423E4F" p-id="2021"></path><path d="M368.271195 885.510696v114.331558h-118.448161c0-43.908378 6.99905-81.930302 17.620218-114.331558zM774.176966 999.842254h-118.448161v-114.331558h100.827943c10.621167 32.401256 17.620217 70.423179 17.620218 114.331558z" fill="#FFD3BC" p-id="2022"></path><path d="M298.499091 977.573859c0-32.687646 5.705143-63.805296 15.994591-92.063163h-47.05043c-10.623227 32.401256-17.620217 70.423179-17.620218 114.331558h49.578495a277.839839 277.839839 0 0 1-0.902438-22.268395z" fill="#FFBE9C" p-id="2023"></path></svg>